<svg id="svg" version="1.1" xmlns="http://www.w3.org/2000/svg" xmlns:xlink="http://www.w3.org/1999/xlink" width="400" height="266.5625" viewBox="0, 0, 400,266.5625"><g id="svgg"><path id="path0" d="M0.000 66.800 L 0.000 88.800 200.000 88.800 L 400.000 88.800 400.000 66.800 L 400.000 44.800 200.000 44.800 L 0.000 44.800 0.000 66.800 M0.000 200.000 L 0.000 221.867 200.000 221.867 L 400.000 221.867 400.000 200.000 L 400.000 178.133 200.000 178.133 L 0.000 178.133 0.000 200.000 " stroke="none" fill="#f4f4fc" fill-rule="evenodd"></path><path id="path1" d="M0.000 133.333 L 0.000 177.600 200.000 177.600 L 400.000 177.600 400.000 133.333 L 400.000 89.067 200.000 89.067 L 0.000 89.067 0.000 133.333 " stroke="none" fill="#2c244c" fill-rule="evenodd"></path><path id="path2" d="M99.933 44.733 C 154.970 44.770,245.030 44.770,300.067 44.733 C 355.103 44.696,310.073 44.666,200.000 44.666 C 89.927 44.666,44.897 44.696,99.933 44.733 M99.933 178.067 C 154.970 178.104,245.030 178.104,300.067 178.067 C 355.103 178.030,310.073 177.999,200.000 177.999 C 89.927 177.999,44.897 178.030,99.933 178.067 M99.933 222.067 C 154.970 222.104,245.030 222.104,300.067 222.067 C 355.103 222.030,310.073 221.999,200.000 221.999 C 89.927 221.999,44.897 222.030,99.933 222.067 " stroke="none" fill="#ecd4dc" fill-rule="evenodd"></path><path id="path3" d="M99.933 44.467 C 154.970 44.504,245.030 44.504,300.067 44.467 C 355.103 44.430,310.073 44.399,200.000 44.399 C 89.927 44.399,44.897 44.430,99.933 44.467 M99.933 89.000 C 154.970 89.037,245.030 89.037,300.067 89.000 C 355.103 88.963,310.073 88.933,200.000 88.933 C 89.927 88.933,44.897 88.963,99.933 89.000 M99.933 177.800 C 154.970 177.837,245.030 177.837,300.067 177.800 C 355.103 177.763,310.073 177.733,200.000 177.733 C 89.927 177.733,44.897 177.763,99.933 177.800 M99.933 222.333 C 154.970 222.370,245.030 222.370,300.067 222.333 C 355.103 222.296,310.073 222.266,200.000 222.266 C 89.927 222.266,44.897 222.296,99.933 222.333 " stroke="none" fill="#6c6c84" fill-rule="evenodd"></path><path id="path4" d="M0.000 22.133 L 0.000 44.267 200.000 44.267 L 400.000 44.267 400.000 22.133 L 400.000 0.000 200.000 0.000 L 0.000 0.000 0.000 22.133 M0.000 244.533 L 0.000 266.667 200.000 266.667 L 400.000 266.667 400.000 244.533 L 400.000 222.400 200.000 222.400 L 0.000 222.400 0.000 244.533 " stroke="none" fill="#a4142c" fill-rule="evenodd"></path></g></svg>